<svg width="57" height="56" viewBox="0 0 57 56" fill="none" xmlns="http://www.w3.org/2000/svg">
<g id="material-symbols:live-tv">
<path id="Vector" d="M22.5132 36.1667L38.8466 25.6667L22.5132 15.1667V36.1667ZM19.0132 49V44.3333H9.67991C8.39658 44.3333 7.29836 43.8768 6.38524 42.9637C5.47213 42.0506 5.0148 40.9516 5.01324 39.6667V11.6667C5.01324 10.3833 5.47058 9.28511 6.38524 8.372C7.29991 7.45889 8.39813 7.00156 9.67991 7H47.0132C48.2966 7 49.3956 7.45733 50.3102 8.372C51.2249 9.28667 51.6815 10.3849 51.6799 11.6667V39.6667C51.6799 40.95 51.2234 42.049 50.3102 42.9637C49.3971 43.8783 48.2981 44.3349 47.0132 44.3333H37.6799V49H19.0132Z" fill="white"/>
</g>
</svg>
