<svg width="24" height="24" viewBox="0 0 24 24" fill="none" xmlns="http://www.w3.org/2000/svg">
<path d="M12 3C9.61305 3 7.32387 3.94821 5.63604 5.63604C3.94821 7.32387 3 9.61305 3 12C3 14.3869 3.94821 16.6761 5.63604 18.364C7.32387 20.0518 9.61305 21 12 21C14.3869 21 16.6761 20.0518 18.364 18.364C20.0518 16.6761 21 14.3869 21 12C21 9.61305 20.0518 7.32387 18.364 5.63604C16.6761 3.94821 14.3869 3 12 3ZM5.4 9H7.8C8.11826 9 8.42348 9.12643 8.64853 9.35147C8.87357 9.57652 9 9.88174 9 10.2V11.4C9 12 8.544 12.48 7.968 12.564L9.372 15H7.98L6.6 12.6V15H5.4M11.4 9H13.8V10.2H11.4V11.4H13.8V12.6H11.4V13.8H13.8V15H11.4C11.0817 15 10.7765 14.8736 10.5515 14.6485C10.3264 14.4235 10.2 14.1183 10.2 13.8V10.2C10.2 9.88174 10.3264 9.57652 10.5515 9.35147C10.7765 9.12643 11.0817 9 11.4 9ZM16.2 9H18.6V10.2H16.2V13.8H18.6V15H16.2C15.8817 15 15.5765 14.8736 15.3515 14.6485C15.1264 14.4235 15 14.1183 15 13.8V10.2C15 9.88174 15.1264 9.57652 15.3515 9.35147C15.5765 9.12643 15.8817 9 16.2 9ZM6.6 10.2V11.4H7.8V10.2" fill="#121212"/>
</svg>
