<svg width="56" height="56" viewBox="0 0 56 56" fill="none" xmlns="http://www.w3.org/2000/svg">
<g id="fluent:movies-and-tv-16-filled">
<path id="Vector" d="M46.263 14.8609L24.8045 21.8329C24.5527 21.9951 24.2635 22.0903 23.9645 22.1094L16.5935 24.4999H47.25C47.7141 24.4999 48.1593 24.6842 48.4875 25.0124C48.8156 25.3406 49 25.7857 49 26.2499V43.7499C49 46.0705 48.0781 48.2961 46.4372 49.937C44.7963 51.578 42.5707 52.4999 40.25 52.4999H15.75C13.4294 52.4999 11.2038 51.578 9.56283 49.937C7.92189 48.2961 7.00002 46.0705 7.00002 43.7499V26.2499C7.00002 25.8789 7.11552 25.5324 7.31502 25.2454L6.63252 23.1384C5.91558 20.9314 6.10464 18.5301 7.1581 16.4625C8.21157 14.395 10.0432 12.8306 12.25 12.1134L35.5495 4.54285C37.7564 3.82592 40.1578 4.01498 42.2253 5.06844C44.2929 6.12191 45.8573 7.95351 46.5745 10.1604L47.3865 12.6559C47.5299 13.0972 47.4921 13.5775 47.2814 13.991C47.0707 14.4045 46.7044 14.7174 46.263 14.8609ZM33.159 15.4384L37.6565 7.64735C37.3081 7.68776 36.9646 7.7628 36.631 7.87136L32.2735 9.28536L27.6955 17.2129L33.159 15.4384ZM41.1915 8.51185C41.17 8.55596 41.1466 8.59916 41.1215 8.64136L38.1325 13.8214L43.5155 12.0714L43.246 11.2419C42.8862 10.1275 42.1627 9.16613 41.1915 8.51185ZM27.2965 10.9024L21.8365 12.6769L17.255 20.6044L22.715 18.8299L27.2965 10.9024ZM10.2305 22.8899L12.285 22.2249L16.8595 14.2939L13.3315 15.4419C12.0074 15.8722 10.9084 16.8108 10.2764 18.0514C9.64429 19.2919 9.53085 20.7327 9.96102 22.0569L10.2305 22.8899Z" fill="white"/>
</g>
</svg>
