<svg width="56" height="57" viewBox="0 0 56 57" fill="none" xmlns="http://www.w3.org/2000/svg">
<g id="ri:movie-2-fill">
<path id="Vector" d="M42.0023 47.1665H46.6667V51.8332H28C15.113 51.8332 4.66666 41.3868 4.66666 28.4998C4.66666 15.6128 15.113 5.1665 28 5.1665C40.887 5.1665 51.3333 15.6128 51.3333 28.4998C51.3363 32.1225 50.4945 35.696 48.8747 38.9363C47.2549 42.1767 44.9018 44.9947 42.0023 47.1665ZM28 23.8332C29.2377 23.8332 30.4247 23.3415 31.2998 22.4663C32.175 21.5912 32.6667 20.4042 32.6667 19.1665C32.6667 17.9288 32.175 16.7418 31.2998 15.8667C30.4247 14.9915 29.2377 14.4998 28 14.4998C26.7623 14.4998 25.5753 14.9915 24.7002 15.8667C23.825 16.7418 23.3333 17.9288 23.3333 19.1665C23.3333 20.4042 23.825 21.5912 24.7002 22.4663C25.5753 23.3415 26.7623 23.8332 28 23.8332ZM18.6667 33.1665C19.9043 33.1665 21.0913 32.6748 21.9665 31.7997C22.8417 30.9245 23.3333 29.7375 23.3333 28.4998C23.3333 27.2622 22.8417 26.0752 21.9665 25.2C21.0913 24.3248 19.9043 23.8332 18.6667 23.8332C17.429 23.8332 16.242 24.3248 15.3668 25.2C14.4917 26.0752 14 27.2622 14 28.4998C14 29.7375 14.4917 30.9245 15.3668 31.7997C16.242 32.6748 17.429 33.1665 18.6667 33.1665ZM37.3333 33.1665C38.571 33.1665 39.758 32.6748 40.6332 31.7997C41.5083 30.9245 42 29.7375 42 28.4998C42 27.2622 41.5083 26.0752 40.6332 25.2C39.758 24.3248 38.571 23.8332 37.3333 23.8332C36.0956 23.8332 34.9087 24.3248 34.0335 25.2C33.1583 26.0752 32.6667 27.2622 32.6667 28.4998C32.6667 29.7375 33.1583 30.9245 34.0335 31.7997C34.9087 32.6748 36.0956 33.1665 37.3333 33.1665ZM28 42.4998C29.2377 42.4998 30.4247 42.0082 31.2998 41.133C32.175 40.2578 32.6667 39.0709 32.6667 37.8332C32.6667 36.5955 32.175 35.4085 31.2998 34.5333C30.4247 33.6582 29.2377 33.1665 28 33.1665C26.7623 33.1665 25.5753 33.6582 24.7002 34.5333C23.825 35.4085 23.3333 36.5955 23.3333 37.8332C23.3333 39.0709 23.825 40.2578 24.7002 41.133C25.5753 42.0082 26.7623 42.4998 28 42.4998Z" fill="white"/>
</g>
</svg>
